<?xml version="1.0" encoding="UTF-8" standalone="no"?>
<svg
   xmlns:dc="http://purl.org/dc/elements/1.1/"
   xmlns:cc="http://creativecommons.org/ns#"
   xmlns:rdf="http://www.w3.org/1999/02/22-rdf-syntax-ns#"
   xmlns:svg="http://www.w3.org/2000/svg"
   xmlns="http://www.w3.org/2000/svg"
   xmlns:sodipodi="http://sodipodi.sourceforge.net/DTD/sodipodi-0.dtd"
   xmlns:inkscape="http://www.inkscape.org/namespaces/inkscape"
   inkscape:version="1.0rc1 (09960d6f05, 2020-04-09)"
   sodipodi:docname="quote_bg.svg"
   version="1.1"
   viewBox="0 0 888 677.20705"
   height="677.20705"
   width="888"
   data-name="Layer 1"
   id="afcd27bc-9e58-484b-acf0-96ac0ca03cce">
  <metadata
     id="metadata105">
    <rdf:RDF>
      <cc:Work
         rdf:about="">
        <dc:format>image/svg+xml</dc:format>
        <dc:type
           rdf:resource="http://purl.org/dc/dcmitype/StillImage" />
        <dc:title></dc:title>
      </cc:Work>
    </rdf:RDF>
  </metadata>
  <defs
     id="defs103" />
  <sodipodi:namedview
     inkscape:current-layer="afcd27bc-9e58-484b-acf0-96ac0ca03cce"
     inkscape:window-maximized="1"
     inkscape:window-y="32"
     inkscape:window-x="-8"
     inkscape:cy="448.40346"
     inkscape:cx="468.24434"
     inkscape:zoom="0.90632356"
     showgrid="false"
     id="namedview101"
     inkscape:window-height="1017"
     inkscape:window-width="1920"
     inkscape:pageshadow="2"
     inkscape:pageopacity="0"
     guidetolerance="10"
     gridtolerance="10"
     objecttolerance="10"
     borderopacity="1"
     bordercolor="#666666"
     pagecolor="#ffffff" />
  <path
     style="opacity:0.58669355"
     id="path36"
     fill="#e6e6e6"
     transform="translate(-156 -111.39648)"
     d="M1043.67468,508.05561A98.57951,98.57951,0,1,0,854.454,546.865c-.09637-.10718-.196-.21149-.29193-.31909a98.66626,98.66626,0,0,0,17.95428,27.78283c.0224.02466.04541.04871.06788.07337.60559.66,1.21466,1.31659,1.83782,1.9599a98.28006,98.28006,0,0,0,69.52936,30.25354l-3.33105,180.9292h10.29126l-2.08283-119.41541,14.88678-7.83758-2.27093-4.31354-12.711,6.692-.97791-56.06378A98.57812,98.57812,0,0,0,1043.67468,508.05561Z" />
  <path
     style="opacity:0.52620968"
     id="path38"
     fill="#e6e6e6"
     transform="translate(-156 -111.39648)"
     d="M751.0871,460.00819a115.52648,115.52648,0,1,0-221.74982,45.4812c-.113-.12561-.22968-.24784-.3421-.37393a115.62807,115.62807,0,0,0,21.04083,32.559c.02625.02893.05322.05706.07959.086.70972.7735,1.42346,1.543,2.15375,2.29682a115.17561,115.17561,0,0,0,81.48224,35.45447l-3.90375,212.033h12.06042l-2.44091-139.94428,17.446-9.185-2.66138-5.05505-14.89618,7.84247-1.146-65.70178A115.52494,115.52494,0,0,0,751.0871,460.00819Z" />
  <path
     style="opacity:0.68548387"
     id="path40"
     fill="#e6e6e6"
     transform="translate(-156 -111.39648)"
     d="M419.25891,414.8147A131.46683,131.46683,0,1,0,166.912,466.57142c-.12855-.14295-.26138-.282-.38931-.42551a131.58166,131.58166,0,0,0,23.944,37.05149c.02989.03289.06059.065.09055.09787.80763.88021,1.61988,1.75582,2.45091,2.61373a131.0676,131.0676,0,0,0,92.72516,40.3465L281.291,787.54475h13.72454L292.23788,628.291,312.091,617.83869l-3.02856-5.75256-16.95154,8.92456-1.30411-74.76727A131.465,131.465,0,0,0,419.25891,414.8147Z" />
  <circle
     style="opacity:0.709677"
     id="circle42"
     fill="#ff6584"
     r="85.975754"
     cy="145.55711"
     cx="585.66492" />
  <circle
     style="opacity:0.72177419"
     id="circle44"
     fill="#6c63ff"
     r="172.3117"
     cy="187.61628"
     cx="245.55884" />
  <path
     id="path46"
     style="isolation:isolate;opacity:0.43951613"
     opacity="0.2"
     transform="translate(-156 -111.39648)"
     d="M274.32944,183.92207A172.32513,172.32513,0,0,0,561.45166,366.29173,172.32654,172.32654,0,1,1,274.32944,183.92207Z" />
  <polygon
     transform="matrix(1,0,0,0.73382076,0,179.97656)"
     style="opacity:0.439516"
     id="polygon48"
     fill="#3f3d56"
     points="246.506,187.616 255.027,676.148 237.038,676.148 246.032,187.616 " />
  <rect
     style="opacity:0.43951613"
     id="rect50"
     fill="#3f3d56"
     transform="translate(-372.96557 148.44822) rotate(-27.76587)"
     height="8.5209"
     width="32.19013"
     y="564.58106"
     x="401.08538" />
  <path
     style="opacity:0.43951613"
     id="path52"
     fill="#3f3d56"
     transform="translate(-156 -111.39648)"
     d="M665.11523,782.975s.62171-13.02673,13.3664-11.51257" />
  <circle
     style="opacity:0.43951613"
     id="circle54"
     fill="#6c63ff"
     r="6.37865"
     cy="652.80328"
     cx="505.51413" />
  <rect
     style="opacity:0.43951613"
     id="rect56"
     fill="#3f3d56"
     height="12.60376"
     width="1.80054"
     y="663.54456"
     x="504.47623" />
  <path
     style="opacity:0.43951613"
     id="path58"
     fill="#3f3d56"
     transform="translate(-156 -111.39648)"
     d="M223.08289,781.17445s.62168-13.02674,13.36641-11.51258" />
  <circle
     style="opacity:0.43951613"
     id="circle60"
     fill="#6c63ff"
     r="6.37865"
     cy="651.00275"
     cx="63.48181" />
  <rect
     style="opacity:0.43951613"
     id="rect62"
     fill="#3f3d56"
     height="12.60376"
     width="1.80054"
     y="661.74402"
     x="62.44391" />
  <path
     style="opacity:0.43951613"
     id="path64"
     fill="#3f3d56"
     transform="translate(-156 -111.39648)"
     d="M327.51416,782.07471s.6217-13.02673,13.36642-11.51257" />
  <circle
     style="opacity:0.43951613"
     id="circle66"
     fill="#6c63ff"
     r="6.37865"
     cy="651.90302"
     cx="167.91309" />
  <rect
     style="opacity:0.43951613"
     id="rect68"
     fill="#3f3d56"
     height="12.60376"
     width="1.80054"
     y="662.64429"
     x="166.87518" />
  <path
     style="opacity:0.43951613"
     id="path70"
     fill="#3f3d56"
     transform="translate(-156 -111.39648)"
     d="M605.24329,194.695l12.79486-10.23341c-9.93976-1.09662-14.02381,4.3243-15.69525,8.615-7.76532-3.22446-16.21882,1.00135-16.21882,1.00135l25.6001,9.29375A19.37211,19.37211,0,0,0,605.24329,194.695Z" />
  <path
     style="opacity:0.43951613"
     id="path72"
     fill="#3f3d56"
     transform="translate(-156 -111.39648)"
     d="M799.827,298.93629l12.7948-10.23343c-9.93976-1.09662-14.02381,4.32431-15.69526,8.615-7.76532-3.22446-16.21881,1.00134-16.21881,1.00134l25.6001,9.29376A19.37241,19.37241,0,0,0,799.827,298.93629Z" />
  <path
     style="opacity:0.43951613"
     id="path74"
     fill="#3f3d56"
     transform="translate(-156 -111.39648)"
     d="M589.95459,387.88883l12.7948-10.23343c-9.93976-1.09662-14.0238,4.32431-15.69525,8.615-7.76532-3.22445-16.21881,1.00138-16.21881,1.00138l25.60009,9.29373A19.37244,19.37244,0,0,0,589.95459,387.88883Z" />
  <path
     style="opacity:0.43951613"
     id="path76"
     fill="#3f3d56"
     transform="translate(-156 -111.39648)"
     d="M839.65527,787.70325s.62171-13.02673,13.3664-11.51257" />
  <path
     style="opacity:0.43951613"
     id="path78"
     fill="#3f3d56"
     transform="translate(-156 -111.39648)"
     d="M719.91943,787.70325s.62171-13.02673,13.3664-11.51257" />
  <path
     style="opacity:0.43951613"
     id="path80"
     fill="#3f3d56"
     transform="translate(-156 -111.39648)"
     d="M283.2887,787.70325s.6217-13.02673,13.36642-11.51257" />
  <path
     style="opacity:0.43951613"
     id="path82"
     fill="#3f3d56"
     transform="translate(-156 -111.39648)"
     d="M893.67145,787.70325s.6217-13.02673,13.36639-11.51257" />
  <path
     style="opacity:0.43951613"
     id="path84"
     fill="#3f3d56"
     transform="translate(-156 -111.39648)"
     d="M868.46387,787.70325s.6217-13.02673,13.36639-11.51257" />
  <path
     style="opacity:0.43951613"
     id="path86"
     fill="#3f3d56"
     transform="translate(-156 -111.39648)"
     d="M816.465,787.70325s-.62171-13.02673-13.3664-11.51257" />
  <path
     style="opacity:0.43951613"
     id="path88"
     fill="#3f3d56"
     transform="translate(-156 -111.39648)"
     d="M609.40308,787.70325s-.62171-13.02673-13.3664-11.51257" />
  <path
     style="opacity:0.43951613"
     id="path90"
     fill="#3f3d56"
     transform="translate(-156 -111.39648)"
     d="M437.4516,787.70325s-.6217-13.02673-13.36643-11.51257" />
  <path
     style="opacity:0.43951613"
     id="path92"
     fill="#3f3d56"
     transform="translate(-156 -111.39648)"
     d="M254.69688,787.70325s-.6217-13.02673-13.36641-11.51257" />
  <path
     style="opacity:0.43951613"
     id="path94"
     fill="#3f3d56"
     transform="translate(-156 -111.39648)"
     d="M947.90442,787.70325s-.62171-13.02673-13.3664-11.51257" />
  <path
     style="opacity:0.43951613"
     id="path96"
     fill="#3f3d56"
     transform="translate(-156 -111.39648)"
     d="M870.4812,788.60352s-.6217-13.02673-13.36639-11.51257" />
  <rect
     style="opacity:0.43951613"
     id="rect98"
     fill="#3f3d56"
     height="2"
     width="888"
     y="674.60352" />
</svg>
